<?xml version="1.0" encoding="UTF-8"?>
<svg version="1.1" xmlns="http://www.w3.org/2000/svg" viewBox="0 0 2048 2048" preserveAspectRatio="xMidYMid meet">
<defs>
	<linearGradient id="VectorWaArrowGradient" gradientUnits="userSpaceOnUse" x1="1025.13" y1="944.986" x2="1001.3" y2="606.976">
		<stop offset="0" stop-opacity="1" stop-color="rgb(178,142,90)"/>
		<stop offset="1" stop-opacity="1" stop-color="rgb(224,192,135)"/>
	</linearGradient>
	<linearGradient id="VectorWaFrameGradient" gradientUnits="userSpaceOnUse" x1="967.716" y1="1590.56" x2="1083.07" y2="314.614">
		<stop offset="0" stop-opacity="1" stop-color="rgb(129,95,60)"/>
		<stop offset="1" stop-opacity="1" stop-color="rgb(189,153,107)"/>
	</linearGradient>
</defs>
<path fill="rgb(20,28,35)" d="M 0 0 L 2048 0 L 2048 2048 L 0 2048 L 0 0 z"/>
<path fill="rgb(20,28,35)" d="M 491.03 1537.19 C 486.689 1534.28 476.526 1523.19 472.844 1518.97 C 448.85 1491.46 429.903 1458.94 417.95 1424.36 C 409.764 1400.25 404.788 1375.16 403.149 1349.74 C 400.786 1311.26 402.633 1252.55 402.569 1212.47 L 402.637 929.528 L 402.57 715.281 C 402.542 682.818 400.897 626.011 403.895 595.07 C 407.237 561.007 416.856 527.857 432.264 497.296 C 466.384 429.459 525.964 377.882 597.989 353.831 C 618.297 347.079 649.865 340.853 671.319 340.219 C 717.648 338.851 765.012 339.365 811.408 339.308 L 1078.56 339.314 L 1274.09 339.306 C 1307.71 339.299 1356.52 337.873 1388.71 341.084 C 1423.33 344.456 1457.05 354.142 1488.18 369.663 C 1556.15 403.895 1607.67 463.791 1631.36 536.105 C 1638.93 559.899 1643.41 584.566 1644.69 609.501 C 1645.61 626.461 1645.12 647.078 1645.11 664.302 L 1645.05 756.051 L 1645.11 1040.57 L 1645.15 1245.73 C 1645.15 1276.34 1646.57 1329.49 1643.74 1358 C 1640.43 1394.55 1630.08 1430.12 1613.27 1462.75 C 1573.95 1546.47 1476.41 1609.7 1383.99 1615.39 C 1338.68 1618.18 1290.18 1616.66 1244.52 1616.58 L 1009.6 1616.66 L 785.61 1616.58 C 709.763 1616.53 633.974 1623.81 564.571 1588.44 C 541.076 1576.46 507.865 1557.06 491.03 1537.19 z"/>
<path fill="url(#VectorWaFrameGradient)" d="M 491.03 1537.19 C 486.689 1534.28 476.526 1523.19 472.844 1518.97 C 448.85 1491.46 429.903 1458.94 417.95 1424.36 C 409.764 1400.25 404.788 1375.16 403.149 1349.74 C 400.786 1311.26 402.633 1252.55 402.569 1212.47 L 402.637 929.528 L 402.57 715.281 C 402.542 682.818 400.897 626.011 403.895 595.07 C 407.237 561.007 416.856 527.857 432.264 497.296 C 466.384 429.459 525.964 377.882 597.989 353.831 C 618.297 347.079 649.865 340.853 671.319 340.219 C 717.648 338.851 765.012 339.365 811.408 339.308 L 1078.56 339.314 L 1274.09 339.306 C 1307.71 339.299 1356.52 337.873 1388.71 341.084 C 1423.33 344.456 1457.05 354.142 1488.18 369.663 C 1556.15 403.895 1607.67 463.791 1631.36 536.105 C 1638.93 559.899 1643.41 584.566 1644.69 609.501 C 1645.61 626.461 1645.12 647.078 1645.11 664.302 L 1645.05 756.051 L 1645.11 1040.57 L 1645.15 1245.73 C 1645.15 1276.34 1646.57 1329.49 1643.74 1358 C 1640.43 1394.55 1630.08 1430.12 1613.27 1462.75 C 1608.47 1466.49 1590.08 1496.86 1582.82 1505.26 C 1579.02 1504.83 1577.58 1505.99 1574.14 1507.68 C 1610.03 1463.03 1630.48 1413.64 1635.48 1356.47 C 1637.14 1337.48 1636.69 1316.55 1636.71 1297.42 L 1636.73 1212.72 L 1636.84 936.231 L 1636.8 715.397 C 1636.83 677.748 1638.96 612.516 1632.84 577.45 C 1624.67 529.446 1603.84 484.49 1572.51 447.214 C 1526.19 391.095 1459.25 355.953 1386.75 349.693 C 1381.2 346.911 1107.98 347.876 1085.48 348.164 C 1081.76 347.879 1075.47 348.075 1071.54 348.069 C 955.178 345.911 835.68 350.083 719.216 347.885 C 687.37 348.079 667.655 347.204 635.74 352.769 C 611.81 357.432 558.664 373.554 541.745 389.484 C 480.711 427.255 436.713 487.235 419.016 556.795 C 408.621 598.574 410.83 631.516 410.85 673.706 L 410.879 765.898 L 410.893 1054.22 L 410.908 1254.11 C 410.911 1284.14 409.393 1335.95 412.7 1364.2 C 417.232 1402.69 429.814 1439.79 449.628 1473.09 C 456.774 1484.97 464.655 1496.39 473.224 1507.29 C 475.72 1517.01 502.209 1540.55 510.697 1548.48 L 509.553 1549.39 C 502.381 1547.07 500.182 1540.68 491.03 1537.19 z"/>
<path fill="rgb(178,139,87)" d="M 635.74 352.769 L 637.593 350.48 C 654.643 342.945 699.988 345.166 719.216 347.885 C 687.37 348.079 667.655 347.204 635.74 352.769 z"/>
<path fill="rgb(118,88,56)" d="M 1582.82 1505.26 C 1590.08 1496.86 1608.47 1466.49 1613.27 1462.75 C 1573.95 1546.47 1476.41 1609.7 1383.99 1615.39 C 1338.68 1618.18 1290.18 1616.66 1244.52 1616.58 L 1009.6 1616.66 L 785.61 1616.58 C 709.763 1616.53 633.974 1623.81 564.571 1588.44 C 541.076 1576.46 507.865 1557.06 491.03 1537.19 C 500.182 1540.68 502.381 1547.07 509.553 1549.39 L 510.697 1548.48 C 502.209 1540.55 475.72 1517.01 473.224 1507.29 C 520.947 1560.69 575.875 1596.14 648.514 1605.98 C 676.086 1609.71 702.693 1608.98 730.414 1608.97 L 821.858 1608.9 L 1111.85 1608.89 L 1286.34 1608.87 C 1384.04 1609.01 1427.72 1614.81 1515.55 1561.24 C 1541.21 1542.6 1553.28 1531.13 1574.14 1507.68 C 1577.58 1505.99 1579.02 1504.83 1582.82 1505.26 z"/>
<path fill="rgb(134,102,63)" d="M 1574.14 1507.68 C 1577.58 1505.99 1579.02 1504.83 1582.82 1505.26 C 1572.2 1518.2 1529.23 1564.12 1516.47 1565.67 L 1516.88 1562.81 L 1515.55 1561.24 C 1541.21 1542.6 1553.28 1531.13 1574.14 1507.68 z"/>
<path fill="rgb(65,75,85)" d="M 719.216 347.885 C 835.68 350.083 955.178 345.911 1071.54 348.069 C 1075.47 348.075 1081.76 347.879 1085.48 348.164 C 1107.98 347.876 1381.2 346.911 1386.75 349.693 L 1385.47 350.445 C 1389.06 352.192 1397.5 352.229 1401.94 353.021 C 1414.38 355.24 1429.58 357.579 1440.7 363.685 L 1436.61 363.433 C 1452.46 370.972 1468.75 374.247 1483.29 384.058 C 1487.28 386.751 1491.63 386.737 1495.75 390.672 L 1494.91 391.153 C 1486.84 387.709 1475.74 380.367 1468.4 377.919 C 1458.14 374.498 1437.88 366.073 1427.87 364.047 C 1403.94 359.208 1360.88 354.69 1337.11 357.785 C 1317.55 360.331 1319.61 357.11 1303.27 357.262 L 1198.49 357.429 L 882.476 358.012 L 698.388 358.122 C 690.011 358.152 681.808 357.511 673.112 357.544 C 650.04 357.631 626.351 363.011 603.973 368.441 C 592.329 371.267 572.287 381.61 560.943 387.275 C 556.225 389.63 548.7 394.767 543.769 396.509 C 541.73 395.911 540.012 395.408 538.616 394.999 L 538.127 394.118 C 541.599 391.214 540.939 392.858 541.745 389.484 C 558.664 373.554 611.81 357.432 635.74 352.769 C 667.655 347.204 687.37 348.079 719.216 347.885 z"/>
<path fill="url(#VectorWaArrowGradient)" d="M 1082.32 622.671 C 1084.23 623.616 1083.52 623.297 1085.87 623.322 C 1097.53 616.966 1108.86 614.937 1119.2 606.887 C 1120.36 605.983 1125.14 602.626 1126.78 601.52 C 1127.37 602.117 1127.96 602.714 1128.55 603.312 C 1138.83 601.863 1149.52 596.514 1160.03 595.742 C 1170.18 594.995 1173.55 596.765 1181.61 598.334 C 1191.96 600.348 1196.95 610.388 1202.73 611.059 C 1205.23 608.945 1203.91 609.846 1207.9 609.364 C 1189.75 621.401 1171.54 633.175 1154.53 646.786 C 1053.84 727.341 990.95 828.745 956.991 952.153 C 914.081 952.194 867.556 953.081 824.942 951.943 C 833.495 929.781 841.614 908.191 851.738 886.662 C 891.068 802.299 948.465 727.613 1019.86 667.895 C 1036.3 654.335 1063.73 633.231 1082.32 622.671 z"/>
<path fill="rgb(223,222,221)" d="M 1205.57 1048.33 C 1222.78 1047.17 1237.85 1049.56 1252.33 1059.59 C 1294.41 1088.73 1289.78 1173.75 1239.02 1191.79 C 1232.74 1194.03 1227.91 1194.91 1221.31 1195.88 C 1202.13 1196.63 1187.19 1195.27 1171.48 1183.42 C 1133.23 1154.55 1135.96 1076.37 1181.07 1055.09 C 1189.7 1051.02 1196.29 1049.54 1205.57 1048.33 z"/>
<path fill="rgb(20,28,35)" d="M 1207.97 1073.21 C 1253.68 1070.55 1259.56 1125 1242.27 1156.06 C 1237.59 1164.47 1228.18 1168.56 1219.06 1170.43 C 1172.69 1174.28 1166.56 1120.03 1183.52 1088.51 C 1188.37 1079.5 1198.22 1075.01 1207.97 1073.21 z"/>
<path fill="rgb(223,222,221)" d="M 1316.91 1050.5 C 1341.72 1050.5 1374.59 1047.85 1398.37 1055.34 C 1407.22 1058.78 1418.64 1067.42 1421.47 1076.92 C 1430.22 1106.23 1421.92 1125.03 1395.54 1136.33 C 1406.62 1155.28 1419.03 1174.77 1429.55 1193.8 L 1401.75 1193.9 L 1398.11 1193.63 C 1392.75 1189.2 1371.35 1149.08 1366.6 1140.55 L 1344.93 1140.33 L 1344.87 1193.81 L 1315.95 1193.69 C 1315.96 1177.43 1314.49 1056.45 1316.91 1050.5 z"/>
<path fill="rgb(20,28,35)" d="M 1344.88 1074.03 C 1353.81 1073.98 1362.64 1073.81 1371.57 1074.38 C 1393.99 1075.83 1404.15 1092.63 1390.63 1111.79 C 1378.23 1120.65 1360.44 1118.2 1344.85 1118.13 L 1344.88 1074.03 z"/>
<path fill="rgb(223,222,221)" d="M 735.017 1050.64 C 767.513 1050.52 800.008 1050.56 832.503 1050.76 C 832.652 1058.82 832.709 1066.88 832.676 1074.94 C 809.794 1074.96 786.911 1074.85 764.03 1074.6 L 764.238 1108.93 C 784.733 1109.19 805.752 1109.01 826.281 1109.04 L 826.164 1132.98 C 805.53 1132.75 784.894 1132.69 764.258 1132.81 C 764.112 1144.65 764.294 1156.89 764.315 1168.76 L 833.59 1168.98 L 833.655 1193.92 L 734.979 1193.86 L 735.017 1050.64 z"/>
<path fill="rgb(223,222,221)" d="M 923.561 1048.3 C 958.269 1044.7 981.21 1059.25 990.492 1093.56 C 981.411 1095.25 971.486 1096.51 962.29 1097.85 C 958.897 1088.56 956.323 1081.69 947.078 1076.75 C 931.169 1067.57 910.5 1073.8 902.284 1090.55 C 891.735 1111.4 891.868 1156.36 916.401 1167.5 C 933.867 1175.43 951.684 1170.62 960.153 1153 C 960.717 1150.88 961.13 1149.67 961.902 1147.6 C 966.768 1144.64 984.792 1147.23 991.799 1147.64 C 989.607 1157.58 987.712 1164.9 981.739 1173.56 C 962.915 1200.56 918.547 1202.97 892.741 1184.8 C 860.275 1161.94 857.917 1103.32 879.636 1072.62 C 890.379 1057.43 905.442 1051.03 923.561 1048.3 z"/>
<path fill="rgb(223,222,221)" d="M 672.683 1050.45 L 702.79 1050.76 C 686.781 1097.92 668.629 1146.85 651.743 1193.88 L 620.669 1193.86 L 586.511 1098.24 L 569.568 1050.85 L 600.433 1050.51 L 637.108 1159.15 C 648.928 1123.29 661.591 1086.44 672.683 1050.45 z"/>
<path fill="rgb(221,190,137)" d="M 1082.32 622.671 C 1171 565.775 1272.9 532.812 1378.1 526.99 C 1386.06 526.537 1402.99 522.427 1408.67 528.155 C 1409.96 531.665 1409.67 531.764 1408.99 535.338 C 1406.54 537.776 1389 539.855 1384.33 540.729 C 1373.2 542.886 1362.15 545.407 1351.18 548.287 C 1313.62 558.232 1277.22 572.121 1242.58 589.722 C 1231 595.73 1219.47 603.087 1207.9 609.364 C 1203.91 609.846 1205.23 608.945 1202.73 611.059 C 1196.95 610.388 1191.96 600.348 1181.61 598.334 C 1173.55 596.765 1170.18 594.995 1160.03 595.742 C 1149.52 596.514 1138.83 601.863 1128.55 603.312 C 1127.96 602.714 1127.37 602.117 1126.78 601.52 C 1125.14 602.626 1120.36 605.983 1119.2 606.887 C 1108.86 614.937 1097.53 616.966 1085.87 623.322 C 1083.52 623.297 1084.23 623.616 1082.32 622.671 z"/>
<path fill="rgb(223,222,221)" d="M 1010.25 1050.53 L 1125.07 1050.72 L 1125.15 1075.01 L 1082.09 1074.9 L 1082 1150.16 L 1082.01 1193.81 L 1052.92 1193.79 L 1052.94 1074.97 L 1010.37 1075 L 1010.25 1050.53 z"/>
<path fill="rgb(223,222,221)" d="M 962.833 1355.89 L 978.453 1356.01 C 987.01 1381.5 995.658 1413.73 1002.98 1439.96 C 1006.64 1420.58 1019.86 1376.65 1025.51 1355.93 L 1042.5 1356.08 L 1037.37 1373.32 L 1011.64 1462.05 L 994.29 1462.07 L 970.903 1382.12 C 962.952 1408.82 954.845 1435.47 946.583 1462.07 L 929.531 1462.06 C 919.053 1426.78 908.771 1391.44 898.684 1356.04 L 916.034 1355.93 C 921.446 1381.1 931.761 1414.5 938.87 1439.5 C 946.093 1411.74 955.302 1383.88 962.833 1355.89 z"/>
<path fill="rgb(223,222,221)" d="M 1094.28 1355.76 L 1113.21 1355.95 C 1115.81 1365.04 1122.81 1382.02 1126.31 1391.27 L 1153.03 1462.01 L 1135.18 1462.06 L 1125.72 1434.67 L 1113.5 1434.71 L 1081.33 1434.67 L 1071.61 1462.08 L 1054.44 1462.04 C 1068.09 1429.22 1081.85 1389.45 1094.28 1355.76 z"/>
<path fill="rgb(20,28,35)" d="M 1103.33 1372.8 C 1105.51 1376.47 1119.06 1415.47 1121.26 1421.58 L 1104.91 1421.63 L 1086.19 1421.44 C 1092.06 1405.28 1097.77 1389.06 1103.33 1372.8 z"/>
<path fill="rgb(178,139,87)" d="M 865.965 1281.1 C 872.297 1276.98 927.637 1279.15 938.551 1279.15 L 1118.48 1279.13 C 1127.15 1279.12 1177.93 1277.95 1182.16 1280.9 C 1181.4 1284.67 1182.09 1284.26 1179.83 1286.52 C 1112.91 1288.56 1038.82 1286.51 971.08 1286.69 L 902.419 1286.9 C 894.328 1286.92 872.627 1287.41 865.948 1286.13 C 864.62 1283.42 865.045 1284.9 865.965 1281.1 z"/>
<path fill="rgb(221,190,137)" d="M 865.965 1281.1 C 872.297 1276.98 927.637 1279.15 938.551 1279.15 L 1118.48 1279.13 C 1127.15 1279.12 1177.93 1277.95 1182.16 1280.9 C 1175.46 1283.15 868.05 1281.97 865.965 1281.1 z"/>
</svg>
