<svg version="1.1" xmlns="http://www.w3.org/2000/svg" style="display: block;" viewBox="0 0 2048 1119" width="1376" height="752" preserveAspectRatio="none">
<path transform="translate(0,0)" fill="rgb(20,28,34)" d="M 0 0 L 2048 0 L 2048 1119 L 0 1119 L 0 0 z"/>
<path transform="translate(0,0)" fill="rgb(186,154,96)" d="M 1214.12 325.42 C 1219.88 324.877 1227.59 323.031 1230.09 329.676 C 1227.33 333.964 1205.46 336.612 1198.85 338.167 C 1175.52 343.556 1152.74 351.102 1130.8 360.706 C 1044.54 397.79 974.959 465.332 935.319 550.445 C 930.149 561.532 925.126 573.471 921.069 584.983 C 917.996 593.7 915.946 603.706 912.535 612.218 L 912.178 613.095 L 839.971 613.126 L 823.772 613.254 C 845.671 558.825 865.776 518.502 904.799 473.349 C 984.172 381.507 1094.89 334.434 1214.12 325.42 z"/>
<path transform="translate(0,0)" fill="rgb(235,234,228)" d="M 1001.03 685.231 C 1046.41 683.033 1060.69 726.608 1041.71 762.891 C 1036.48 772.901 1023.95 778.276 1013.1 780.341 C 967.498 786.52 950.872 736.049 971.921 701.898 C 978.296 691.555 989.483 687.341 1001.03 685.231 z"/>
<path transform="translate(0,0)" fill="rgb(20,28,34)" d="M 1000.03 701.183 C 1034.16 698.301 1039.01 735.86 1022.66 758.693 C 1020.74 761.376 1015.97 763.441 1012.91 764.769 C 1008.87 765.045 1002.51 765.604 998.904 764 C 974.405 753.114 975.676 711.84 1000.03 701.183 z"/>
<path transform="translate(0,0)" fill="rgb(235,234,228)" d="M 1074.75 687.017 C 1098.51 686.85 1144.21 680.237 1144.42 714.194 C 1144.52 730.609 1137.82 736.378 1124.15 742.852 L 1147.72 779.011 L 1130.75 779.023 L 1127.53 778.908 C 1123.39 776.731 1109.14 749.845 1105.75 744.108 L 1092.7 744.298 L 1092.75 778.998 L 1074.85 779.01 L 1074.75 687.017 z"/>
<path transform="translate(0,0)" fill="rgb(20,28,34)" d="M 1092.58 701.605 C 1108.35 701.501 1138.78 701.074 1122.88 726.882 C 1114.23 732.956 1103.27 731.379 1092.67 731.194 C 1092.53 721.332 1092.5 711.468 1092.58 701.605 z"/>
<path transform="translate(0,0)" fill="rgb(235,234,228)" d="M 1361.66 686.881 C 1365.32 686.754 1369.02 686.364 1372.51 687.367 L 1373.49 689.209 L 1371.82 693.871 C 1362.25 722.391 1352.01 750.687 1342.56 779.167 L 1330.56 779.133 C 1323.59 761.272 1316.48 738.918 1310.06 720.419 C 1303.07 738.481 1296.09 760.501 1289.5 779.099 L 1277.57 779.079 C 1267.1 748.611 1258.05 717.112 1247.01 686.991 L 1260.6 687.026 C 1266.85 709.238 1276.05 740.681 1283.86 762.051 C 1287.51 752.356 1302.26 699.672 1308.74 696.488 C 1310.05 695.844 1310.72 696.353 1312.04 696.769 C 1317.99 702.553 1332.27 750.555 1336.12 762.244 C 1344.89 741.207 1353.49 709.773 1361.66 686.881 z"/>
<path transform="translate(0,0)" fill="rgb(235,234,228)" d="M 697.3 687.014 L 758.197 686.992 L 758.2 701.956 L 715.133 701.912 L 715.077 725.394 C 727.959 725.896 742.442 725.4 755.44 725.23 L 755.38 740.02 L 715.425 740.02 C 714.849 744.366 715.158 759.048 715.15 764.159 L 758.25 764.065 L 758.29 779.037 C 738.082 778.81 717.447 779.036 697.203 779.044 L 697.3 687.014 z"/>
<path transform="translate(0,0)" fill="rgb(235,234,228)" d="M 818.437 685.259 C 841.24 684.205 853.549 692.081 860.278 713.87 C 854.338 715.048 848.405 716.265 842.481 717.522 C 835.381 696.848 813.599 694.068 803.318 714.124 C 797.564 725.347 799.741 739.281 803.16 751.001 C 808.177 768.2 834.894 770.485 840.502 754.648 C 841.304 752.175 841.363 751.97 842.823 749.848 C 847.932 747.961 855.034 748.87 860.885 748.99 C 858.465 766.763 850.035 776.727 831.731 780.108 C 784.462 788.838 769.127 732.988 790.493 700.378 C 796.584 691.083 807.532 686.92 818.437 685.259 z"/>
<path transform="translate(0,0)" fill="rgb(235,234,228)" d="M 1412.24 686.995 L 1427.29 687.057 C 1433.98 710.775 1450.3 755.904 1458.93 779.052 L 1445.95 778.988 C 1443.21 771.488 1440.64 763.596 1438.06 756.016 L 1425.88 756.09 L 1399.95 756.292 L 1392.03 779.059 L 1379.53 778.938 L 1412.24 686.995 z"/>
<path transform="translate(0,0)" fill="rgb(20,28,34)" d="M 1419.22 701.676 C 1423.32 709.796 1431.82 736.458 1435.42 746.61 L 1419.09 746.77 L 1403.24 746.701 C 1408.8 732.488 1414.13 716.198 1419.22 701.676 z"/>
<path transform="translate(0,0)" fill="rgb(235,234,228)" d="M 591.297 687.093 L 610.527 687.007 C 618.565 709.951 626.157 709.951 633.785 756.892 C 641.716 735.267 649.874 709.136 656.958 687.013 L 675.754 687.045 L 669.653 703.252 L 642.278 779.054 L 624.935 778.971 C 615.181 750.346 602.437 714.89 591.297 687.093 z"/>
<path transform="translate(0,0)" fill="rgb(235,234,228)" d="M 875.341 687.016 L 949.902 687.023 L 949.931 702.023 L 921.864 701.931 L 921.883 749.75 L 921.891 778.978 L 903.879 778.958 L 903.868 702.005 L 875.195 701.958 L 875.341 687.016 z"/>
<path transform="translate(0,0)" fill="rgb(186,154,96)" d="M 1196.25 660.766 C 1199.91 660.654 1200.96 660.703 1204.58 661.244 C 1207.41 664.713 1206 787.849 1205.99 801.961 C 1201.74 801.991 1199.59 802.563 1196.52 800.514 C 1195.37 789.684 1196.14 764.288 1196.17 752.628 L 1196.25 660.766 z"/>
</svg>
